<?xml version="1.0" encoding="UTF-8"?><svg id="Layer_1" xmlns="http://www.w3.org/2000/svg" viewBox="0 0 1572.23 253.4"><defs><style>.cls-1{font-family:MyriadPro-LightSemiExt, 'Myriad Pro';font-size:55px;}.cls-2{fill:#f7941d;}.cls-3{fill:#fff;}.cls-4,.cls-5{fill:#231f20;}.cls-6{fill:#27aae1;}.cls-7{letter-spacing:-.03em;}.cls-8{letter-spacing:-.01em;}.cls-9{letter-spacing:-.01em;}.cls-10{letter-spacing:0em;}.cls-11{letter-spacing:-.01em;}.cls-12{fill:none;opacity:.62;stroke:#77b1e0;stroke-miterlimit:10;stroke-width:6px;}.cls-13{letter-spacing:0em;}.cls-14{letter-spacing:0em;}.cls-15{font-family:MyriadPro-LightSemiCn, 'Myriad Pro';font-size:47px;}.cls-16{letter-spacing:-.04em;}.cls-5{font-weight:300;}.cls-17{letter-spacing:0em;}</style></defs><g id="Logo"><rect class="cls-4" x="58.4" y="47.79" width="527.43" height="154.38"/><polygon class="cls-3" points="558.03 81.41 558.03 93.23 518 93.23 518 168.55 503.49 168.55 503.49 93.23 463.63 93.23 463.63 81.41 558.03 81.41"/><path class="cls-3" d="m193.44,81.41v87.14h-13.51v-58.77l.67-12.84c-1.92,4.05-3.66,7.21-5.24,9.46l-33.27,48.46h-3.72l-34.62-47.12c-1.35-1.8-3.33-5.4-5.91-10.81.45,3.38.68,7.66.68,12.84v58.77h-12.33v-87.14h11.82l42.39,56.74,39.52-56.74h13.51Z"/><polygon class="cls-3" points="284.79 81.41 333.26 168.55 317.56 168.55 276.69 91.37 235.65 168.55 221.64 168.55 269.26 81.41 284.79 81.41"/><polygon class="cls-3" points="407.56 81.41 456.03 168.55 440.35 168.55 399.48 91.37 399.47 91.39 399.46 91.37 397.55 95.01 358.44 168.55 344.4 168.55 392.03 81.41 407.56 81.41"/><circle class="cls-6" cx="277.45" cy="141.8" r="9.39"/><circle class="cls-2" cx="400.22" cy="141.8" r="9.39"/></g><rect class="cls-12" x="3" y="3" width="1566.23" height="247.4"/><text class="cls-5" transform="translate(648.66 120.96)"><tspan class="cls-1"><tspan x="0" y="0">On Sale All </tspan><tspan class="cls-10" x="270.43" y="0">M</tspan><tspan x="317.45" y="0">onth…thEQ</tspan><tspan class="cls-13" x="609.27" y="0">r</tspan><tspan x="626.43" y="0">ed + MtG</tspan></tspan><tspan class="cls-15"><tspan class="cls-14" x="-.67" y="50">U</tspan><tspan x="25.79" y="50">se </tspan><tspan class="cls-9" x="71.8" y="50">C</tspan><tspan x="95.06" y="50">oupon </tspan><tspan class="cls-8" x="218.25" y="50">C</tspan><tspan x="241.51" y="50">ode: 20-PE</tspan><tspan class="cls-17" x="422.88" y="50">R</tspan><tspan x="444.92" y="50">CEN</tspan><tspan class="cls-16" x="515.84" y="50">T-</tspan><tspan x="545.55" y="50">THEQR-</tspan><tspan class="cls-11" x="676.02" y="50">M</tspan><tspan class="cls-7" x="709.06" y="50">T</tspan><tspan x="727.53" y="50">G-2023</tspan></tspan></text></svg>