<?xml version="1.0" encoding="utf-8"?>
<!-- Generator: Adobe Illustrator 23.1.1, SVG Export Plug-In . SVG Version: 6.00 Build 0)  -->
<svg version="1.1" id="Layer_1" xmlns="http://www.w3.org/2000/svg" xmlns:xlink="http://www.w3.org/1999/xlink" x="0px" y="0px"
	 width="192px" height="55px" viewBox="0 0 192 55" style="enable-background:new 0 0 192 55;" xml:space="preserve">
<style type="text/css">
	.st0{fill:#B5DCF4;}
	.st1{fill:#757575;}
</style>
<g>
	<path class="st0" d="M14.9,49.4c2.5-1.2,3.7-2.5,3.6-3.7c-0.2-2.4-5.2-4.6-14.4-6.3c7.5-1.3,10.8-6.8,10.8-11.8S11.5,17,4,15.7
		c9.2-1.8,14.2-4,14.4-6.3c0.1-1.3-1.1-2.5-3.5-3.7C24.4,7.4,61.8,8.2,96,8.2s71.6-0.8,81.1-2.5c-2.5,1.2-3.7,2.5-3.6,3.7
		c0.2,2.4,5.2,4.6,14.4,6.3c-7.5,1.3-10.9,6.8-10.9,11.8s3.4,10.5,10.9,11.8c-9.2,1.8-14.2,4-14.4,6.3c-0.1,1.3,1.1,2.5,3.6,3.7
		c-9.5-1.7-46.9-2.5-81.1-2.5S24.4,47.6,14.9,49.4z"/>
	<path d="M15.7,5.9c10.7,1.6,47,2.4,80.3,2.4s69.7-0.7,80.3-2.4c-2.1,1.1-3.1,2.3-2.9,3.5c0.3,3,7.4,5,13.9,6.3
		c-7.1,1.5-10.3,6.9-10.3,11.8s3.2,10.3,10.3,11.8c-6.5,1.3-13.6,3.4-13.9,6.3c-0.1,1.2,0.9,2.4,2.9,3.5c-10.7-1.6-47-2.4-80.3-2.4
		s-69.6,0.7-80.3,2.4c2.1-1.1,3.1-2.3,2.9-3.5c-0.3-3-7.4-5-13.9-6.3C11.8,37.8,15,32.4,15,27.5S11.8,17.2,4.7,15.7
		c6.5-1.3,13.6-3.4,13.9-6.3C18.8,8.2,17.8,7,15.7,5.9 M178.3,5.3C171.5,7.1,133.7,8,96,8S20.5,7.1,13.7,5.3
		c8.8,3.7,4.9,7.6-10.5,10.5c15.3,2,15.3,21.6,0,23.6c15.3,2.9,19.2,6.8,10.5,10.5C20.5,47.9,58.3,47,96,47s75.5,0.9,82.3,2.8
		c-8.8-3.7-4.9-7.6,10.5-10.5c-15.3-2-15.3-21.6,0-23.6C173.4,12.9,169.5,8.9,178.3,5.3L178.3,5.3z"/>
</g>
<g>
	<path class="st1" d="M36,33.9h2.2V20.6H36V18h8.4c1.1-0.1,2.2,0.1,3.3,0.5c1.7,0.7,2.9,2.4,2.8,4.2c0,1.6-0.8,3.2-2.3,3.9v0
		c1.9,0.6,3.1,2.4,3,4.3c0,2.3-1.5,4.3-3.6,5c-0.9,0.2-1.8,0.3-2.7,0.3H36V33.9z M44.8,25.6c1.2,0,2.2-0.9,2.3-2.1
		c0-0.1,0-0.2,0-0.3c0.1-0.8-0.3-1.7-1.1-2.1c-0.5-0.2-1-0.3-1.6-0.3h-2.8v4.8L44.8,25.6z M45,33.7c0.4,0,0.9-0.1,1.3-0.2
		c1-0.5,1.6-1.5,1.5-2.6c0.1-1.4-0.9-2.6-2.3-2.7c-0.1,0-0.2,0-0.4,0h-3.5v5.5H45z"/>
	<path class="st1" d="M54.7,25.7h-2v-2.5H58v8c0,1.6,0.4,2.7,2.1,2.7c2.3,0,3.7-2.3,3.7-4.7v-3.5h-2v-2.5H67v10.2
		c0,0.3,0.2,0.5,0.5,0.6c0,0,0.1,0,0.1,0h1.3v2.4h-3.3c-1.2,0-1.7-0.5-1.7-1.5v-0.5c0-0.3,0-0.6,0-0.6l0,0c-0.9,1.8-2.8,3-4.8,2.9
		c-2.6,0-4.3-1.4-4.3-5L54.7,25.7z"/>
	<path class="st1" d="M72.6,39.2c1,0,1.9-0.6,2.3-1.5l0.4-0.8l-4.5-11.1h-1.6v-2.5h6.5v2.5h-1.6l2.5,6.7c0.1,0.4,0.2,0.9,0.3,1.4H77
		c0.1-0.5,0.2-0.9,0.4-1.4l2.4-6.7h-1.6v-2.5h6.2v2.5h-1.5L78,38.1c-0.7,2.3-2.8,3.8-5.2,3.7c-1.1,0-2.2-0.3-3.2-0.9l1.1-2.4
		C71.2,38.9,71.9,39.2,72.6,39.2z"/>
	<path class="st1" d="M92.4,33.9h2.2V20.6h-2.2V18H98l7.7,11.8c0.3,0.5,0.5,1,0.7,1.6h0.1c-0.1-0.6-0.1-1.2-0.1-1.7v-9.1h-2.3V18
		h7.9v2.6h-2.2v15.8h-3.4l-7.7-11.8c-0.3-0.5-0.5-1-0.7-1.6h-0.1c0.1,0.6,0.1,1.1,0.1,1.7v9.1h2.3v2.5h-7.9V33.9z"/>
	<path class="st1" d="M120.4,22.9c3.8,0.2,6.8,3.4,6.6,7.2c-0.2,3.8-3.4,6.8-7.2,6.6c-3.7-0.2-6.6-3.2-6.6-6.9c0-3.8,3.2-6.9,7-6.9
		C120.2,22.9,120.3,22.9,120.4,22.9z M120.4,34c2.2,0,3.9-1.7,4-3.9c0-0.1,0-0.2,0-0.3c0-2.2-1.8-3.9-3.9-3.9
		c-2.2,0-3.9,1.8-3.9,3.9c0,0,0,0,0,0C116.4,32,118.1,33.9,120.4,34C120.3,34,120.4,34,120.4,34z"/>
	<path class="st1" d="M128.5,23.2h6.3v2.5h-1.6l1.7,6.4c0.1,0.5,0.2,0.9,0.2,1.4h0.1c0-0.5,0.1-1,0.2-1.4l2.5-8.9h2.9l2.4,8.9
		c0.1,0.5,0.2,0.9,0.2,1.4h0.1c0-0.5,0.1-1,0.2-1.4l1.8-6.4h-1.6v-2.5h6.3v2.5h-1.6l-3,10.7h-3.7l-2.3-7.7c-0.1-0.5-0.2-1-0.2-1.5
		h-0.1c0,0.5-0.1,1-0.2,1.5l-2.3,7.7h-3.7l-3.1-10.7h-1.6L128.5,23.2z"/>
	<path class="st1" d="M152.1,18h3.4l-0.3,13.1h-2.9L152.1,18z M152.3,33.3h3.2v3.1h-3.2V33.3z"/>
</g>
</svg>
